<?xml version="1.0" encoding="UTF-8"?>
<svg xmlns="http://www.w3.org/2000/svg" width="800" height="420" viewBox="0 0 800 420">
  <rect width="100%" height="100%" fill="#0d1117"/>
  <text x="400" y="22" fill="#e6edf3" font-family="system-ui,sans-serif" font-size="15" font-weight="600" text-anchor="middle">Miooowo/STS2-MoreEnchantStandalone · Release History</text>
  <line x1="58" y1="36.00" x2="738" y2="36.00" stroke="#30363d" stroke-width="1"/><line x1="58" y1="119.00" x2="738" y2="119.00" stroke="#30363d" stroke-width="1"/><line x1="58" y1="202.00" x2="738" y2="202.00" stroke="#30363d" stroke-width="1"/><line x1="58" y1="285.00" x2="738" y2="285.00" stroke="#30363d" stroke-width="1"/><line x1="58" y1="368.00" x2="738" y2="368.00" stroke="#30363d" stroke-width="1"/>
  <path d="M 58.00,334.80 L 92.18,301.60 L 96.88,268.40 L 296.39,235.20 L 314.98,202.00 L 315.32,168.80 L 443.19,135.60 L 622.32,102.40 L 648.68,69.20 L 738.00,36.00 L 738.00 368.00 L 58.00 368.00 Z" fill="rgba(88,166,255,0.15)" stroke="none"/>
  <path d="M 58.00,334.80 L 92.18,301.60 L 96.88,268.40 L 296.39,235.20 L 314.98,202.00 L 315.32,168.80 L 443.19,135.60 L 622.32,102.40 L 648.68,69.20 L 738.00,36.00" fill="none" stroke="#58a6ff" stroke-width="2.5" stroke-linejoin="round" stroke-linecap="round"/>
  <path d="M 58.00,368.00 L 92.18,312.67 L 96.88,312.61 L 296.39,312.56 L 314.98,257.33 L 315.32,257.28 L 443.19,202.00 L 622.32,146.67 L 648.68,91.33 L 738.00,36.00" fill="none" stroke="#a371f7" stroke-width="2.5" stroke-linejoin="round" stroke-linecap="round"/>
  <text x="58" y="402" fill="#8b949e" font-family="system-ui,sans-serif" font-size="11" text-anchor="start">2026-04-03</text>
  <text x="738" y="402" fill="#8b949e" font-family="system-ui,sans-serif" font-size="11" text-anchor="end">2026-04-13</text>
  <text x="58" y="416" fill="#58a6ff" font-family="system-ui,sans-serif" font-size="11" text-anchor="start">累积 Release</text>
  <text x="738" y="416" fill="#a371f7" font-family="system-ui,sans-serif" font-size="11" text-anchor="end">语义化版本</text>
  <text x="50" y="40" fill="#8b949e" font-family="system-ui,sans-serif" font-size="11" text-anchor="end">10</text><text x="50" y="123" fill="#8b949e" font-family="system-ui,sans-serif" font-size="11" text-anchor="end">8</text><text x="50" y="206" fill="#8b949e" font-family="system-ui,sans-serif" font-size="11" text-anchor="end">5</text><text x="50" y="289" fill="#8b949e" font-family="system-ui,sans-serif" font-size="11" text-anchor="end">3</text><text x="50" y="372" fill="#8b949e" font-family="system-ui,sans-serif" font-size="11" text-anchor="end">0</text>
  <text x="746" y="40" fill="#c9a8ff" font-family="system-ui,sans-serif" font-size="11" text-anchor="start">0.7.0</text><text x="746" y="123" fill="#c9a8ff" font-family="system-ui,sans-serif" font-size="11" text-anchor="start">0.5.500</text><text x="746" y="206" fill="#c9a8ff" font-family="system-ui,sans-serif" font-size="11" text-anchor="start">0.4.0</text><text x="746" y="289" fill="#c9a8ff" font-family="system-ui,sans-serif" font-size="11" text-anchor="start">0.2.500</text><text x="746" y="372" fill="#c9a8ff" font-family="system-ui,sans-serif" font-size="11" text-anchor="start">0.1.0</text>
</svg>